<svg width="18" height="19" viewBox="0 0 18 19" fill="none" xmlns="http://www.w3.org/2000/svg">
<path fill-rule="evenodd" clip-rule="evenodd" d="M0 3.5C0 2.70435 0.316071 1.94129 0.87868 1.37868C1.44129 0.816071 2.20435 0.5 3 0.5H15C15.7956 0.5 16.5587 0.816071 17.1213 1.37868C17.6839 1.94129 18 2.70435 18 3.5V15.5C18 16.2956 17.6839 17.0587 17.1213 17.6213C16.5587 18.1839 15.7956 18.5 15 18.5H3C2.20435 18.5 1.44129 18.1839 0.87868 17.6213C0.316071 17.0587 0 16.2956 0 15.5V3.5ZM10 5.5C10 5.23478 9.89464 4.98043 9.70711 4.79289C9.51957 4.60536 9.26522 4.5 9 4.5C8.73478 4.5 8.48043 4.60536 8.29289 4.79289C8.10536 4.98043 8 5.23478 8 5.5V13.5C8 13.7652 8.10536 14.0196 8.29289 14.2071C8.48043 14.3946 8.73478 14.5 9 14.5C9.26522 14.5 9.51957 14.3946 9.70711 14.2071C9.89464 14.0196 10 13.7652 10 13.5V5.5ZM6 8.5C6 8.23478 5.89464 7.98043 5.70711 7.79289C5.51957 7.60536 5.26522 7.5 5 7.5C4.73478 7.5 4.48043 7.60536 4.29289 7.79289C4.10536 7.98043 4 8.23478 4 8.5V13.5C4 13.7652 4.10536 14.0196 4.29289 14.2071C4.48043 14.3946 4.73478 14.5 5 14.5C5.26522 14.5 5.51957 14.3946 5.70711 14.2071C5.89464 14.0196 6 13.7652 6 13.5V8.5ZM14 11.5C14 11.2348 13.8946 10.9804 13.7071 10.7929C13.5196 10.6054 13.2652 10.5 13 10.5C12.7348 10.5 12.4804 10.6054 12.2929 10.7929C12.1054 10.9804 12 11.2348 12 11.5V13.5C12 13.7652 12.1054 14.0196 12.2929 14.2071C12.4804 14.3946 12.7348 14.5 13 14.5C13.2652 14.5 13.5196 14.3946 13.7071 14.2071C13.8946 14.0196 14 13.7652 14 13.5V11.5Z" fill="white"/>
</svg>
