<svg width="18" height="19" viewBox="0 0 18 19" fill="none" xmlns="http://www.w3.org/2000/svg">
<g clip-path="url(#clip0_746_3163)">
<path fill-rule="evenodd" clip-rule="evenodd" d="M10.1996 1.48626C10.1996 1.23051 10.098 0.985244 9.91714 0.804405C9.7363 0.623567 9.49103 0.521973 9.23528 0.521973C8.97954 0.521973 8.73427 0.623567 8.55343 0.804405C8.37259 0.985244 8.271 1.23051 8.271 1.48626V2.45569C8.271 2.71143 8.37259 2.9567 8.55343 3.13754C8.73427 3.31838 8.97954 3.41997 9.23528 3.41997C9.49103 3.41997 9.7363 3.31838 9.91714 3.13754C10.098 2.9567 10.1996 2.71143 10.1996 2.45569V1.48626ZM8.47928 4.26469C8.70078 4.13708 8.96388 4.10264 9.21076 4.16894C9.45764 4.23524 9.66809 4.39685 9.79585 4.61826L14.7561 13.2081C14.882 13.4295 14.9152 13.6916 14.8485 13.9374C14.7818 14.1831 14.6205 14.3925 14.4 14.5198C14.1795 14.6471 13.9176 14.6821 13.6714 14.617C13.4252 14.5519 13.2148 14.3921 13.086 14.1724L13.0153 14.049L9.03985 14.9721C9.21756 15.6254 9.15178 16.3209 8.85479 16.9293C8.55779 17.5377 8.04981 18.0174 7.42544 18.2791C6.80108 18.5408 6.10288 18.5667 5.46086 18.3519C4.81884 18.1371 4.27676 17.6963 3.93557 17.1115L3.933 17.1077L3.44957 16.2707L1.58014 16.704C1.44592 16.7351 1.30525 16.7223 1.17886 16.6675C1.05247 16.6126 0.947048 16.5186 0.87814 16.3993L0.09514 15.0428C0.0264127 14.9235 -0.00218681 14.7853 0.0135526 14.6485C0.029292 14.5117 0.0885385 14.3836 0.182569 14.283L8.199 5.70726L8.12571 5.58254C8.06232 5.47281 8.02119 5.35167 8.00465 5.22603C7.98812 5.10039 7.99651 4.97272 8.02934 4.85033C8.06218 4.72794 8.11882 4.61322 8.19603 4.51273C8.27323 4.41224 8.36948 4.32795 8.47928 4.26469ZM5.41285 15.8143L7.15757 15.4093C7.23361 15.6121 7.23055 15.8361 7.149 16.0368C7.06745 16.2375 6.91337 16.4002 6.7174 16.4925C6.52142 16.5848 6.29788 16.6001 6.09121 16.5351C5.88453 16.4702 5.70984 16.3299 5.60185 16.1421L5.41285 15.8143ZM17.9871 9.27254C17.9871 9.52829 17.8855 9.77356 17.7047 9.9544C17.5239 10.1352 17.2786 10.2368 17.0229 10.2368H16.0534C15.7977 10.2368 15.5524 10.1352 15.3716 9.9544C15.1907 9.77356 15.0891 9.52829 15.0891 9.27254C15.0891 9.0168 15.1907 8.77153 15.3716 8.59069C15.5524 8.40985 15.7977 8.30826 16.0534 8.30826H17.0216C17.2773 8.30826 17.5226 8.40985 17.7034 8.59069C17.8843 8.77153 17.9871 9.0168 17.9871 9.27254ZM2.41971 10.2368C2.67546 10.2368 2.92073 10.1352 3.10156 9.9544C3.2824 9.77356 3.384 9.52829 3.384 9.27254C3.384 9.0168 3.2824 8.77153 3.10156 8.59069C2.92073 8.40985 2.67546 8.30826 2.41971 8.30826H1.45028C1.19454 8.30826 0.949269 8.40985 0.76843 8.59069C0.587591 8.77153 0.485997 9.0168 0.485997 9.27254C0.485997 9.52829 0.587591 9.77356 0.76843 9.9544C0.949269 10.1352 1.19454 10.2368 1.45028 10.2368H2.41971ZM5.22514 5.26369C5.04434 5.44427 4.79925 5.5457 4.54371 5.5457C4.28817 5.5457 4.04309 5.44427 3.86228 5.26369L3.04714 4.44854C2.9524 4.36026 2.87641 4.25381 2.82371 4.13552C2.771 4.01724 2.74266 3.88955 2.74038 3.76007C2.7381 3.6306 2.76191 3.50199 2.81041 3.38192C2.85891 3.26185 2.9311 3.15278 3.02266 3.06121C3.11423 2.96964 3.2233 2.89746 3.34337 2.84896C3.46344 2.80046 3.59205 2.77664 3.72153 2.77893C3.851 2.78121 3.97869 2.80955 4.09697 2.86225C4.21526 2.91496 4.32172 2.99095 4.41 3.08569L5.22643 3.89954C5.31603 3.98909 5.38712 4.09542 5.43562 4.21246C5.48411 4.32949 5.50908 4.45493 5.50908 4.58162C5.50908 4.7083 5.48411 4.83374 5.43562 4.95077C5.38712 5.06781 5.31475 5.17414 5.22514 5.26369ZM15.4234 4.44854C15.5938 4.26575 15.6865 4.02397 15.6821 3.77416C15.6777 3.52434 15.5765 3.28599 15.3998 3.10932C15.2231 2.93264 14.9848 2.83144 14.735 2.82703C14.4851 2.82263 14.2434 2.91536 14.0606 3.08569L13.2351 3.90854C13.0542 4.08944 12.9526 4.33479 12.9526 4.59062C12.9526 4.71729 12.9776 4.84272 13.026 4.95975C13.0745 5.07678 13.1456 5.18312 13.2351 5.27269C13.3247 5.36226 13.431 5.43331 13.5481 5.48178C13.6651 5.53026 13.7905 5.55521 13.9172 5.55521C14.173 5.55521 14.4184 5.45358 14.5993 5.27269L15.4234 4.44854Z" fill="white"/>
</g>
<defs>
<clipPath id="clip0_746_3163">
<rect width="18" height="18" fill="white" transform="translate(0 0.5)"/>
</clipPath>
</defs>
</svg>
