<svg width="24" height="24" viewBox="0 0 24 24" fill="none" xmlns="http://www.w3.org/2000/svg">
<path d="M8.25 18C6.51667 18 5.04167 17.3917 3.825 16.175C2.60833 14.9583 2 13.4833 2 11.75C2 10.0167 2.60833 8.54167 3.825 7.325C5.04167 6.10833 6.51667 5.5 8.25 5.5H17.5C18.75 5.5 19.8127 5.93767 20.688 6.813C21.5633 7.68833 22.0007 8.75067 22 10C21.9993 11.2493 21.562 12.312 20.688 13.188C19.814 14.064 18.7513 14.5013 17.5 14.5H8.75C7.98333 14.5 7.33333 14.2333 6.8 13.7C6.26667 13.1667 6 12.5167 6 11.75C6 10.9833 6.26667 10.3333 6.8 9.8C7.33333 9.26667 7.98333 9 8.75 9H17C17.2833 9 17.521 9.096 17.713 9.288C17.905 9.48 18.0007 9.71733 18 10C17.9993 10.2827 17.9033 10.5203 17.712 10.713C17.5207 10.9057 17.2833 11.0013 17 11H8.75C8.53333 11 8.35433 11.071 8.213 11.213C8.07167 11.355 8.00067 11.534 8 11.75C7.99933 11.966 8.07033 12.1453 8.213 12.288C8.35567 12.4307 8.53467 12.5013 8.75 12.5H17.5C18.2 12.4833 18.7917 12.2377 19.275 11.763C19.7583 11.2883 20 10.7007 20 10C20 9.29933 19.7583 8.70767 19.275 8.225C18.7917 7.74233 18.2 7.50067 17.5 7.5H8.25C7.06667 7.48333 6.06267 7.89167 5.238 8.725C4.41333 9.55833 4.00067 10.5667 4 11.75C4 12.9167 4.41267 13.9083 5.238 14.725C6.06333 15.5417 7.06733 15.9667 8.25 16H17C17.2833 16 17.521 16.096 17.713 16.288C17.905 16.48 18.0007 16.7173 18 17C17.9993 17.2827 17.9033 17.5203 17.712 17.713C17.5207 17.9057 17.2833 18.0013 17 18H8.25Z" fill="#343B34"/>
</svg>
