<svg width="22" height="16" viewBox="0 0 22 16" fill="none" xmlns="http://www.w3.org/2000/svg">
<g clip-path="url(#clip0_62_3)">
<path d="M5.5 16C3.98333 16 2.68767 15.475 1.613 14.425C0.538333 13.375 0.000666667 12.0917 0 10.575C0 9.275 0.391667 8.11667 1.175 7.1C1.95833 6.08333 2.98333 5.43333 4.25 5.15C4.66667 3.61667 5.5 2.375 6.75 1.425C8 0.475 9.41667 0 11 0C12.95 0 14.6043 0.679333 15.963 2.038C17.3217 3.39667 18.0007 5.05067 18 7C19.15 7.13333 20.1043 7.62933 20.863 8.488C21.6217 9.34667 22.0007 10.3507 22 11.5C22 12.75 21.5627 13.8127 20.688 14.688C19.8133 15.5633 18.7507 16.0007 17.5 16H12V8.85L12.9 9.725C13.0833 9.90833 13.3127 10 13.588 10C13.8633 10 14.1007 9.9 14.3 9.7C14.4833 9.51667 14.575 9.28333 14.575 9C14.575 8.71667 14.4833 8.48333 14.3 8.3L11.7 5.7C11.5 5.5 11.2667 5.4 11 5.4C10.7333 5.4 10.5 5.5 10.3 5.7L7.7 8.3C7.51667 8.48333 7.421 8.71267 7.413 8.988C7.405 9.26333 7.50067 9.50067 7.7 9.7C7.88333 9.88333 8.11267 9.97933 8.388 9.988C8.66333 9.99667 8.90067 9.909 9.1 9.725L10 8.85V16H5.5Z" fill="white"/>
</g>
<defs>
<clipPath id="clip0_62_3">
<rect width="22" height="16" fill="white"/>
</clipPath>
</defs>
</svg>
