<svg width="25" height="25" viewBox="0 0 25 25" fill="none" xmlns="http://www.w3.org/2000/svg">
<g clip-path="url(#clip0_730_6272)">
<path fill-rule="evenodd" clip-rule="evenodd" d="M2.72303 5.65208C2.8413 5.36654 3.04159 5.12248 3.29858 4.95079C3.55557 4.77909 3.85771 4.68746 4.16678 4.6875H14.5834C16.6554 4.6875 18.6426 5.5106 20.1077 6.97573C21.5728 8.44086 22.3959 10.428 22.3959 12.5C22.3959 14.572 21.5728 16.5591 20.1077 18.0243C18.6426 19.4894 16.6554 20.3125 14.5834 20.3125H5.20844C4.79404 20.3125 4.39661 20.1479 4.10359 19.8549C3.81056 19.5618 3.64594 19.1644 3.64594 18.75C3.64594 18.3356 3.81056 17.9382 4.10359 17.6451C4.39661 17.3521 4.79404 17.1875 5.20844 17.1875H14.5834C15.8266 17.1875 17.0189 16.6936 17.898 15.8146C18.7771 14.9355 19.2709 13.7432 19.2709 12.5C19.2709 11.2568 18.7771 10.0645 17.898 9.18544C17.0189 8.30636 15.8266 7.8125 14.5834 7.8125H7.93865L8.91782 8.79167C9.2023 9.08649 9.35961 9.48126 9.35586 9.89094C9.35211 10.3006 9.1876 10.6924 8.89776 10.982C8.60792 11.2716 8.21595 11.4357 7.80626 11.4391C7.39657 11.4424 7.00196 11.2848 6.7074 11L3.06157 7.35417C2.84322 7.13569 2.69452 6.8574 2.63427 6.55445C2.57401 6.2515 2.6049 5.93749 2.72303 5.65208Z" fill="#465746"/>
</g>
<defs>
<clipPath id="clip0_730_6272">
<rect width="25" height="25" fill="white"/>
</clipPath>
</defs>
</svg>
