<svg width="18" height="19" viewBox="0 0 18 19" fill="none" xmlns="http://www.w3.org/2000/svg">
<path d="M7.875 16.25C7.875 16.25 6.75 16.25 6.75 15.125C6.75 14 7.875 10.625 12.375 10.625C16.875 10.625 18 14 18 15.125C18 16.25 16.875 16.25 16.875 16.25H7.875ZM12.375 9.5C13.2701 9.5 14.1286 9.14442 14.7615 8.51149C15.3944 7.87855 15.75 7.02011 15.75 6.125C15.75 5.22989 15.3944 4.37145 14.7615 3.73851C14.1286 3.10558 13.2701 2.75 12.375 2.75C11.4799 2.75 10.6214 3.10558 9.98851 3.73851C9.35558 4.37145 9 5.22989 9 6.125C9 7.02011 9.35558 7.87855 9.98851 8.51149C10.6214 9.14442 11.4799 9.5 12.375 9.5ZM5.868 16.25C5.7013 15.8988 5.61813 15.5137 5.625 15.125C5.625 13.6006 6.39 12.0312 7.803 10.94C7.09783 10.7222 6.36297 10.616 5.625 10.625C1.125 10.625 0 14 0 15.125C0 16.25 1.125 16.25 1.125 16.25H5.868ZM5.0625 9.5C5.80842 9.5 6.52379 9.20368 7.05124 8.67624C7.57868 8.14879 7.875 7.43342 7.875 6.6875C7.875 5.94158 7.57868 5.22621 7.05124 4.69876C6.52379 4.17132 5.80842 3.875 5.0625 3.875C4.31658 3.875 3.60121 4.17132 3.07376 4.69876C2.54632 5.22621 2.25 5.94158 2.25 6.6875C2.25 7.43342 2.54632 8.14879 3.07376 8.67624C3.60121 9.20368 4.31658 9.5 5.0625 9.5Z" fill="white"/>
</svg>
