<svg width="18" height="18" viewBox="0 0 18 18" fill="none" xmlns="http://www.w3.org/2000/svg">
<path d="M7.875 15.75C7.875 15.75 6.75 15.75 6.75 14.625C6.75 13.5 7.875 10.125 12.375 10.125C16.875 10.125 18 13.5 18 14.625C18 15.75 16.875 15.75 16.875 15.75H7.875ZM12.375 9C13.2701 9 14.1286 8.64442 14.7615 8.01149C15.3944 7.37855 15.75 6.52011 15.75 5.625C15.75 4.72989 15.3944 3.87145 14.7615 3.23851C14.1286 2.60558 13.2701 2.25 12.375 2.25C11.4799 2.25 10.6214 2.60558 9.98851 3.23851C9.35558 3.87145 9 4.72989 9 5.625C9 6.52011 9.35558 7.37855 9.98851 8.01149C10.6214 8.64442 11.4799 9 12.375 9ZM5.868 15.75C5.7013 15.3988 5.61813 15.0137 5.625 14.625C5.625 13.1006 6.39 11.5312 7.803 10.44C7.09783 10.2222 6.36297 10.116 5.625 10.125C1.125 10.125 0 13.5 0 14.625C0 15.75 1.125 15.75 1.125 15.75H5.868ZM5.0625 9C5.80842 9 6.52379 8.70368 7.05124 8.17624C7.57868 7.64879 7.875 6.93342 7.875 6.1875C7.875 5.44158 7.57868 4.72621 7.05124 4.19876C6.52379 3.67132 5.80842 3.375 5.0625 3.375C4.31658 3.375 3.60121 3.67132 3.07376 4.19876C2.54632 4.72621 2.25 5.44158 2.25 6.1875C2.25 6.93342 2.54632 7.64879 3.07376 8.17624C3.60121 8.70368 4.31658 9 5.0625 9Z" fill="#465746"/>
</svg>
