<svg width="18" height="18" viewBox="0 0 18 18" fill="none" xmlns="http://www.w3.org/2000/svg">
<path d="M4.36798 2.72439L8.99998 7.35639L13.608 2.74839C13.7098 2.64005 13.8324 2.55338 13.9685 2.49359C14.1046 2.43379 14.2513 2.40209 14.4 2.40039C14.7182 2.40039 15.0235 2.52682 15.2485 2.75186C15.4735 2.97691 15.6 3.28213 15.6 3.60039C15.6028 3.74751 15.5755 3.89366 15.5198 4.02985C15.464 4.16604 15.3811 4.28941 15.276 4.39239L10.608 9.00039L15.276 13.6684C15.4738 13.8619 15.5897 14.1239 15.6 14.4004C15.6 14.7187 15.4735 15.0239 15.2485 15.2489C15.0235 15.474 14.7182 15.6004 14.4 15.6004C14.247 15.6067 14.0945 15.5812 13.9519 15.5254C13.8094 15.4697 13.68 15.3848 13.572 15.2764L8.99998 10.6444L4.37998 15.2644C4.27858 15.3691 4.15745 15.4527 4.02358 15.5104C3.8897 15.5681 3.74573 15.5987 3.59998 15.6004C3.28172 15.6004 2.97649 15.474 2.75145 15.2489C2.5264 15.0239 2.39998 14.7187 2.39998 14.4004C2.39718 14.2533 2.42447 14.1071 2.48019 13.9709C2.5359 13.8347 2.61886 13.7114 2.72398 13.6084L7.39197 9.00039L2.72398 4.33239C2.5262 4.1389 2.41022 3.87689 2.39998 3.60039C2.39998 3.28213 2.5264 2.97691 2.75145 2.75186C2.97649 2.52682 3.28172 2.40039 3.59998 2.40039C3.88798 2.40399 4.16398 2.52039 4.36798 2.72439Z" fill="#465746"/>
</svg>
