<svg width="18" height="19" viewBox="0 0 18 19" fill="none" xmlns="http://www.w3.org/2000/svg">
<path d="M11 6.5C10.7167 6.5 10.4793 6.404 10.288 6.212C10.0967 6.02 10.0007 5.78267 10 5.5V1.5C10 1.21667 10.096 0.979333 10.288 0.788C10.48 0.596667 10.7173 0.500667 11 0.5H17C17.2833 0.5 17.521 0.596 17.713 0.788C17.905 0.98 18.0007 1.21733 18 1.5V5.5C18 5.78333 17.904 6.021 17.712 6.213C17.52 6.405 17.2827 6.50067 17 6.5H11ZM1 10.5C0.716667 10.5 0.479333 10.404 0.288 10.212C0.0966668 10.02 0.000666667 9.78267 0 9.5V1.5C0 1.21667 0.0960001 0.979333 0.288 0.788C0.48 0.596667 0.717333 0.500667 1 0.5H7C7.28333 0.5 7.521 0.596 7.713 0.788C7.905 0.98 8.00067 1.21733 8 1.5V9.5C8 9.78333 7.904 10.021 7.712 10.213C7.52 10.405 7.28267 10.5007 7 10.5H1ZM11 18.5C10.7167 18.5 10.4793 18.404 10.288 18.212C10.0967 18.02 10.0007 17.7827 10 17.5V9.5C10 9.21667 10.096 8.97933 10.288 8.788C10.48 8.59667 10.7173 8.50067 11 8.5H17C17.2833 8.5 17.521 8.596 17.713 8.788C17.905 8.98 18.0007 9.21733 18 9.5V17.5C18 17.7833 17.904 18.021 17.712 18.213C17.52 18.405 17.2827 18.5007 17 18.5H11ZM1 18.5C0.716667 18.5 0.479333 18.404 0.288 18.212C0.0966668 18.02 0.000666667 17.7827 0 17.5V13.5C0 13.2167 0.0960001 12.9793 0.288 12.788C0.48 12.5967 0.717333 12.5007 1 12.5H7C7.28333 12.5 7.521 12.596 7.713 12.788C7.905 12.98 8.00067 13.2173 8 13.5V17.5C8 17.7833 7.904 18.021 7.712 18.213C7.52 18.405 7.28267 18.5007 7 18.5H1Z" fill="white"/>
</svg>
