<svg width="20" height="20" viewBox="0 0 20 20" fill="none" xmlns="http://www.w3.org/2000/svg">
<path d="M10 0C8.02219 0 6.08879 0.58649 4.4443 1.6853C2.79981 2.78412 1.51809 4.3459 0.761209 6.17316C0.00433284 8.00042 -0.1937 10.0111 0.192152 11.9509C0.578004 13.8907 1.53041 15.6725 2.92894 17.0711C4.32746 18.4696 6.10929 19.422 8.0491 19.8078C9.98891 20.1937 11.9996 19.9957 13.8268 19.2388C15.6541 18.4819 17.2159 17.2002 18.3147 15.5557C19.4135 13.9112 20 11.9778 20 10C20 8.68678 19.7413 7.38642 19.2388 6.17316C18.7362 4.95991 17.9997 3.85752 17.0711 2.92893C16.1425 2.00035 15.0401 1.26375 13.8268 0.761204C12.6136 0.258658 11.3132 0 10 0ZM13.69 11.86L10.69 14.72C10.6465 14.7621 10.5956 14.796 10.54 14.82C10.4935 14.8632 10.4392 14.8971 10.38 14.92C10.2603 14.9729 10.1309 15.0002 10 15.0002C9.86913 15.0002 9.7397 14.9729 9.62 14.92C9.49725 14.8724 9.38511 14.801 9.29 14.71L6.29 11.71C6.1017 11.5217 5.99591 11.2663 5.99591 11C5.99591 10.7337 6.1017 10.4783 6.29 10.29C6.47831 10.1017 6.7337 9.99591 7 9.99591C7.2663 9.99591 7.5217 10.1017 7.71 10.29L9 11.59V6C9 5.73478 9.10536 5.48043 9.2929 5.29289C9.48043 5.10536 9.73479 5 10 5C10.2652 5 10.5196 5.10536 10.7071 5.29289C10.8946 5.48043 11 5.73478 11 6V11.66L12.31 10.41C12.5023 10.227 12.7594 10.1279 13.0248 10.1344C13.2901 10.141 13.542 10.2527 13.725 10.445C13.908 10.6373 14.0071 10.8944 14.0006 11.1597C13.994 11.4251 13.8823 11.677 13.69 11.86Z" fill="#FF6666"/>
</svg>
