<?xml version="1.0" encoding="UTF-8" standalone="no"?>
<!-- Created with Inkscape (http://www.inkscape.org/) -->

<svg
   width="66.096031mm"
   height="24.825527mm"
   viewBox="0 0 66.096031 24.825527"
   version="1.1"
   id="svg1"
   xmlns="http://www.w3.org/2000/svg"
   xmlns:svg="http://www.w3.org/2000/svg">
  <defs
     id="defs1">
    <linearGradient
       id="swatch108">
      <stop
         style="stop-color:#ffffff;stop-opacity:1;"
         offset="0"
         id="stop108" />
    </linearGradient>
  </defs>
  <g
     id="layer1"
     transform="translate(-131.54341,-113.5895)">
    <path
       style="font-size:22.5778px;font-family:Lot;-inkscape-font-specification:'Lot, Normal';text-align:end;text-anchor:end;fill:none;fill-opacity:1;stroke:#000000;stroke-width:2.3865;stroke-linejoin:round;stroke-miterlimit:0;stroke-dasharray:none;stroke-opacity:1"
       d="m 102.34587,58.935083 a 6.2733734,6.2733734 119.96157 0 0 5.3702,-9.31589 l -3.58527,-6.751777 a 1.5851256,1.5851256 0.13117618 0 0 -2.79655,-0.0064 l -4.069279,7.579262 a 5.7668927,5.7668927 59.115586 0 0 5.080899,8.494807 z"
       id="path50"
       transform="matrix(-1.046666,0,0,-1.0501273,253.5247,181.34067)" />
    <path
       id="path51"
       style="fill:none;fill-opacity:1;stroke:#000000;stroke-width:2.25483;stroke-linejoin:round;stroke-dasharray:none;stroke-opacity:1"
       d="m 219.61001,115.51718 c -1.15843,0.0174 -2.30195,0.26285 -3.36467,0.72218 l -7.65848,3.31054 c -1.36021,0.5878 -1.44161,2.47774 -0.13694,3.1793 l 10.05083,5.4044 c 0.68377,0.36763 1.50916,0.36042 2.18634,-0.0191 l 10.28039,-5.7618 c 1.28026,-0.71761 1.15447,-2.59193 -0.21031,-3.1336 l -3.88105,-1.54063 -3.88104,-1.54063 c -1.07618,-0.42715 -2.22663,-0.63807 -3.38506,-0.62062 z"
       transform="matrix(1.1086131,0,0,1.1106254,-97.321901,-13.453609)" />
    <path
       style="font-size:22.5778px;font-family:Inner;-inkscape-font-specification:'Inner, Normal';stroke:#000000;stroke-width:0.553178;stroke-linejoin:round;stroke-dasharray:none"
       d="m 60.63695,43.573879 -1.670087,1.059738 v -7.662169 l 1.670087,-0.91468 z"
       id="path52"
       aria-label="i&#10;"
       transform="matrix(0.84177318,0,0,0.83942479,108.39196,91.783554)" />
    <g
       id="g130"
       transform="matrix(1.1291289,0,0,1.1291289,-23.766046,-57.150977)"
       style="stroke-width:0.885639">
      <path
         style="font-size:12.2166px;font-family:Sink;-inkscape-font-specification:'Sink, Normal';opacity:0.926282;stroke-width:0.26569"
         d="m 190.86824,154.1899 v 8.1729 c 0,0.10995 0.0733,0.18325 0.18325,0.18325 h 1.74697 c 0.0977,0 0.18325,-0.0733 0.18325,-0.18325 v -2.88312 c 0,-0.0733 0.0489,-0.13438 0.12217,-0.14659 0.0733,-0.0122 0.1466,0.0244 0.15882,0.0977 l 0.69634,2.98085 c 0.0122,0.0855 0.0855,0.13438 0.18325,0.13438 h 1.75919 c 0.0611,0 0.10995,-0.0244 0.1466,-0.0733 0.0366,-0.0489 0.0489,-0.10995 0.0244,-0.15881 l -1.24609,-3.98262 c -0.0122,-0.0367 -0.0122,-0.0733 0,-0.10995 l 1.24609,-3.98261 c 0.0244,-0.0611 0.0122,-0.10995 -0.0244,-0.15881 -0.0367,-0.0489 -0.0855,-0.0855 -0.1466,-0.0855 h -1.75919 c -0.0977,0 -0.17103,0.0611 -0.18325,0.1466 l -0.69634,2.98085 c -0.0122,0.0611 -0.0855,0.10995 -0.15882,0.0977 -0.0733,-0.0122 -0.12217,-0.0733 -0.12217,-0.1466 v -2.88311 c 0,-0.10995 -0.0855,-0.19547 -0.18325,-0.19547 h -1.74697 c -0.10995,0 -0.18325,0.0855 -0.18325,0.19547 z"
         id="path147" />
      <path
         style="font-size:12.2166px;font-family:Sink;-inkscape-font-specification:'Sink, Normal';opacity:0.926282;stroke-width:0.26569"
         d="m 184.68222,158.27024 c 0,1.88136 -0.0244,4.27581 2.63879,4.27581 1.91801,0 2.44332,-1.24609 2.58992,-2.63878 0.0122,-0.0855 -0.0366,-0.17104 -0.12217,-0.19547 l -1.71032,-0.56196 c -0.0611,-0.0122 -0.12217,-0.0122 -0.17103,0.0244 -0.0489,0.0366 -0.0733,0.0855 -0.0855,0.1466 -0.0367,0.61083 -0.15882,1.11171 -0.50088,1.11171 -0.53753,0 -0.52531,-1.20944 -0.52531,-2.16234 0,-0.94068 -0.0122,-2.15012 0.52531,-2.15012 0.34206,0 0.46423,0.50088 0.50088,1.11171 0.0122,0.0611 0.0366,0.10995 0.0855,0.1466 0.0489,0.0366 0.10995,0.0366 0.17103,0.0244 l 1.71032,-0.56196 c 0.0855,-0.0244 0.13439,-0.10995 0.12217,-0.19547 -0.1466,-1.39269 -0.67191,-2.651 -2.58992,-2.651 -2.66322,0 -2.63879,2.40667 -2.63879,4.27581 z"
         id="path146" />
      <path
         id="path134"
         style="font-size:12.2166px;font-family:Sink;-inkscape-font-specification:'Sink, Normal';opacity:0.926282;stroke-width:0.26569"
         d="m 179.74246,153.99451 c -0.0977,0 -0.17131,0.0734 -0.18353,0.17117 l -0.90389,8.1849 c -0.0122,0.0489 0.0123,0.0979 0.049,0.13456 0.0244,0.0489 0.073,0.0609 0.1341,0.0609 h 1.7103 c 0.0977,0 0.18352,-0.0734 0.18352,-0.17117 l 0.049,-0.74508 c 0.0122,-0.0977 0.0977,-0.18307 0.19543,-0.18307 h 0.59863 c 0.0977,0 0.18306,0.0853 0.18306,0.18307 l 0.049,0.74508 c 0.0122,0.0977 0.0977,0.17117 0.19543,0.17117 h 1.71029 c 0.0489,0 0.0979,-0.012 0.13456,-0.0609 0.0367,-0.0367 0.0612,-0.0857 0.049,-0.13456 h -4.6e-4 l -0.90389,-8.1849 c -0.0122,-0.0977 -0.0975,-0.17117 -0.18307,-0.17117 z m 1.52677,2.1254 c 0.0855,0 0.14646,0.0491 0.14646,0.13456 h 4.5e-4 l 0.18307,2.88329 c 0.0122,0.0489 -0.0123,0.0974 -0.049,0.1341 -0.0366,0.0489 -0.0852,0.0613 -0.1341,0.0613 h -0.281 c -0.0611,0 -0.11026,-0.0246 -0.14691,-0.0613 -0.0244,-0.0366 -0.049,-0.0852 -0.049,-0.1341 l 0.18352,-2.88329 c 0.0122,-0.0855 0.0731,-0.13456 0.14645,-0.13456 z" />
      <path
         id="path131"
         style="font-size:12.2166px;font-family:Sink;-inkscape-font-specification:'Sink, Normal';opacity:0.926282;stroke-width:0.26569"
         d="m 172.8111,153.99451 c -0.10995,0 -0.18306,0.0855 -0.18306,0.19542 v 8.17301 c 0,0.10995 0.0731,0.18307 0.18306,0.18307 h 1.74691 c 0.0977,0 0.18307,-0.0731 0.18307,-0.18307 v -1.78398 c 0,-0.0977 0.0858,-0.18307 0.18353,-0.18307 h 0.0123 c 0.0855,0 0.14627,0.0489 0.17071,0.1222 l 0.59863,1.90572 c 0.0244,0.0733 0.098,0.1222 0.18352,0.1222 h 1.77117 c 0.0611,0 0.10982,-0.0243 0.14646,-0.0732 0.0367,-0.0489 0.0492,-0.10995 0.0247,-0.15881 l -0.7698,-2.45538 c -0.0122,-0.0611 8e-5,-0.13466 0.049,-0.18353 0.56196,-0.59861 0.8064,-1.51498 0.8064,-2.48009 0,-1.68589 -0.72104,-3.20046 -2.65126,-3.20046 z m 2.11351,2.1254 h 0.34187 c 0.62305,0 0.5254,0.6597 0.5254,1.07506 0,0.41536 0.0854,1.07506 -0.5254,1.07506 h -0.34187 c -0.0977,0 -0.18353,-0.0731 -0.18353,-0.18307 v -1.78352 c 0,-0.10995 0.0858,-0.18353 0.18353,-0.18353 z" />
      <path
         style="font-size:12.2166px;font-family:Sink;-inkscape-font-specification:'Sink, Normal';opacity:0.926282;stroke-width:0.26569"
         d="m 168.00554,156.30337 v 6.05943 c 0,0.10995 0.0855,0.18325 0.19547,0.18325 h 1.73475 c 0.10995,0 0.19547,-0.0733 0.19547,-0.18325 v -6.05943 c 0,-0.10995 0.0855,-0.18325 0.18325,-0.18325 h 1.20944 c 0.10995,0 0.19547,-0.0855 0.19547,-0.19547 v -1.73475 c 0,-0.10995 -0.0855,-0.19547 -0.19547,-0.19547 h -4.91107 c -0.10995,0 -0.18325,0.0855 -0.18325,0.19547 v 1.73475 c 0,0.10995 0.0733,0.19547 0.18325,0.19547 h 1.20944 c 0.10995,0 0.18325,0.0855 0.18325,0.18325 z"
         id="text1" />
      <path
         style="font-size:12.5808px;font-family:Sink;-inkscape-font-specification:'Sink, Normal';opacity:0.926282;stroke-width:0.708513"
         d="m 180.23496,172.35185 c 0.60377,0 1.09434,-0.49074 1.09434,-1.08213 0,-0.60398 -0.49057,-1.09471 -1.09434,-1.09471 -0.60378,0 -1.08177,0.49073 -1.08177,1.09471 0,0.59139 0.47799,1.08213 1.08177,1.08213 z"
         id="path150" />
      <path
         id="path149"
         style="font-size:12.5808px;font-family:Sink;-inkscape-font-specification:'Sink, Normal';opacity:0.926282;stroke-width:0.708513"
         d="m 173.1246,163.54372 c -0.11321,0 -0.18856,0.0882 -0.18856,0.20137 v 8.41785 c 0,0.11324 0.0754,0.18903 0.18856,0.18903 h 2.64166 c 2.62895,-0.0629 2.61648,-2.50412 2.61648,-4.40413 0,-1.90001 0.0125,-4.32863 -2.61648,-4.40412 z m 2.1762,2.18947 h 0.35242 c 0.62893,0 0.5405,1.812 0.5405,2.21465 0,0.40265 0.0885,2.22701 -0.5405,2.22701 h -0.35242 c -0.10063,0 -0.18856,-0.0879 -0.18856,-0.18856 v -4.06408 c 0,-0.11325 0.088,-0.18902 0.18856,-0.18902 z" />
      <path
         style="font-size:12.5808px;font-family:Sink;-inkscape-font-specification:'Sink, Normal';opacity:0.926282;stroke-width:0.708513"
         d="m 166.45694,163.71828 c 0,2.80552 0,5.61104 0,8.41656 0,0.11322 0.0755,0.18871 0.18871,0.18871 h 5.05748 c 0.11323,0 0.20129,-0.0755 0.20129,-0.18871 v -1.79906 c 0,-0.10065 -0.0881,-0.18871 -0.20129,-0.18871 h -2.881 c -0.10065,0 -0.18871,-0.0881 -0.18871,-0.18871 v -0.75485 c 0,-0.10065 0.0881,-0.18871 0.18871,-0.18871 h 2.2268 c 0.10065,0 0.18871,-0.0881 0.18871,-0.18872 v -1.79905 c 0,-0.10065 -0.0881,-0.18871 -0.18871,-0.18871 h -2.2268 c -0.10065,0 -0.18871,-0.0881 -0.18871,-0.18871 v -0.75485 c 0,-0.11323 0.0881,-0.18871 0.18871,-0.18871 h 2.881 c 0.11323,0 0.20129,-0.0881 0.20129,-0.2013 v -1.78647 c 0,-0.11323 -0.0881,-0.20129 -0.20129,-0.20129 h -5.05748 c -0.11323,0 -0.18871,0.0881 -0.18871,0.20129 z"
         transform="scale(0.99983583,1.0001642)"
         id="text4" />
      <text
         xml:space="preserve"
         style="font-style:normal;font-variant:normal;font-weight:normal;font-stretch:normal;font-size:19.9958px;font-family:Sink;-inkscape-font-specification:'Sink, Normal';font-variant-ligatures:normal;font-variant-caps:normal;font-variant-numeric:normal;font-variant-east-asian:normal;text-align:start;writing-mode:lr-tb;direction:ltr;text-anchor:start;opacity:0.926282;fill:#000000;fill-opacity:1;stroke:none;stroke-width:0.411822;stroke-dasharray:none"
         x="184.98987"
         y="168.44528"
         id="text130"><tspan
           id="tspan130"
           style="stroke-width:0.411822"
           x="184.98987"
           y="168.44528" /></text>
    </g>
  </g>
</svg>
