<svg width="18" height="19" viewBox="0 0 18 19" fill="none" xmlns="http://www.w3.org/2000/svg">
<path d="M18 15.0714V15.9286H0V15.0714L2 13.3571V8.21429C2 5.55714 4.03 3.21714 7 2.46286V2.21429C7 1.75963 7.21072 1.32359 7.58579 1.0021C7.96086 0.680612 8.46957 0.5 9 0.5C9.53044 0.5 10.0391 0.680612 10.4142 1.0021C10.7893 1.32359 11 1.75963 11 2.21429V2.46286C13.97 3.21714 16 5.55714 16 8.21429V13.3571L18 15.0714ZM11 16.7857C11 17.2404 10.7893 17.6764 10.4142 17.9979C10.0391 18.3194 9.53044 18.5 9 18.5C8.46957 18.5 7.96086 18.3194 7.58579 17.9979C7.21072 17.6764 7 17.2404 7 16.7857" fill="white"/>
</svg>
