<svg width="21" height="21" viewBox="0 0 21 21" fill="none" xmlns="http://www.w3.org/2000/svg">
<g clip-path="url(#clip0_689_4945)">
<path d="M4.1998 8.4C4.19923 7.09103 4.6064 5.81438 5.36473 4.74745C6.12306 3.68051 7.1949 2.87628 8.4313 2.4465C8.38342 2.14653 8.40119 1.83974 8.48339 1.5473C8.56558 1.25486 8.71024 0.983728 8.90738 0.75262C9.10453 0.521512 9.34947 0.335926 9.6253 0.208666C9.90113 0.0814063 10.2013 0.0155029 10.5051 0.0155029C10.8088 0.0155029 11.109 0.0814063 11.3848 0.208666C11.6606 0.335926 11.9056 0.521512 12.1027 0.75262C12.2999 0.983728 12.4445 1.25486 12.5267 1.5473C12.6089 1.83974 12.6267 2.14653 12.5788 2.4465C13.8132 2.87804 14.8828 3.68303 15.6392 4.74981C16.3955 5.81659 16.8011 7.0923 16.7998 8.4V14.7L19.9498 16.8V17.85H1.0498V16.8L4.1998 14.7V8.4ZM12.5998 18.9C12.5998 19.457 12.3786 19.9911 11.9847 20.3849C11.5909 20.7788 11.0568 21 10.4998 21C9.94285 21 9.40871 20.7788 9.01488 20.3849C8.62105 19.9911 8.3998 19.457 8.3998 18.9H12.5998Z" fill="#465746"/>
</g>
<defs>
<clipPath id="clip0_689_4945">
<rect width="21" height="21" fill="white"/>
</clipPath>
</defs>
</svg>
