<svg width="35" height="35" viewBox="0 0 35 35" fill="none" xmlns="http://www.w3.org/2000/svg">
<path d="M10.2087 19.6878C10.8163 19.6878 11.333 19.4754 11.7589 19.0505C12.1847 18.6257 12.3971 18.1089 12.3962 17.5003C12.3952 16.8917 12.1828 16.3755 11.7589 15.9516C11.335 15.5277 10.8182 15.3148 10.2087 15.3128C9.59908 15.3109 9.08283 15.5238 8.65991 15.9516C8.23699 16.3794 8.02408 16.8956 8.02116 17.5003C8.01824 18.105 8.23116 18.6218 8.65991 19.0505C9.08866 19.4793 9.60491 19.6917 10.2087 19.6878ZM17.5003 19.6878C18.108 19.6878 18.6247 19.4754 19.0505 19.0505C19.4764 18.6257 19.6888 18.1089 19.6878 17.5003C19.6869 16.8917 19.4744 16.3755 19.0505 15.9516C18.6266 15.5277 18.1099 15.3148 17.5003 15.3128C16.8907 15.3109 16.3745 15.5238 15.9516 15.9516C15.5287 16.3794 15.3157 16.8956 15.3128 17.5003C15.3099 18.105 15.5228 18.6218 15.9516 19.0505C16.3803 19.4793 16.8966 19.6917 17.5003 19.6878ZM24.792 19.6878C25.3996 19.6878 25.9164 19.4754 26.3422 19.0505C26.768 18.6257 26.9805 18.1089 26.9795 17.5003C26.9785 16.8917 26.7661 16.3755 26.3422 15.9516C25.9183 15.5277 25.4016 15.3148 24.792 15.3128C24.1824 15.3109 23.6662 15.5238 23.2432 15.9516C22.8203 16.3794 22.6074 16.8956 22.6045 17.5003C22.6016 18.105 22.8145 18.6218 23.2432 19.0505C23.672 19.4793 24.1882 19.6917 24.792 19.6878ZM17.5003 32.0837C15.483 32.0837 13.5871 31.7006 11.8128 30.9345C10.0385 30.1684 8.49512 29.1296 7.18262 27.818C5.87012 26.5065 4.8313 24.9631 4.06616 23.1878C3.30102 21.4125 2.91797 19.5167 2.91699 17.5003C2.91602 15.4839 3.29908 13.5881 4.06616 11.8128C4.83324 10.0375 5.87206 8.49415 7.18262 7.18262C8.49318 5.87109 10.0366 4.83227 11.8128 4.06616C13.5891 3.30005 15.4849 2.91699 17.5003 2.91699C19.5157 2.91699 21.4116 3.30005 23.1878 4.06616C24.9641 4.83227 26.5075 5.87109 27.818 7.18262C29.1286 8.49415 30.1679 10.0375 30.936 11.8128C31.704 13.5881 32.0866 15.4839 32.0837 17.5003C32.0807 19.5167 31.6977 21.4125 30.9345 23.1878C30.1713 24.9631 29.1325 26.5065 27.818 27.818C26.5036 29.1296 24.9602 30.1689 23.1878 30.936C21.4155 31.703 19.5196 32.0856 17.5003 32.0837Z" fill="#767EE0"/>
</svg>
