<svg width="25" height="25" viewBox="0 0 25 25" fill="none" xmlns="http://www.w3.org/2000/svg">
<path fill-rule="evenodd" clip-rule="evenodd" d="M12.4997 2.08337C13.8676 2.08337 15.2221 2.3528 16.486 2.87628C17.7498 3.39976 18.8981 4.16705 19.8654 5.13432C20.8327 6.1016 21.5999 7.24992 22.1234 8.51373C22.6469 9.77754 22.9164 11.1321 22.9164 12.5C22.9164 18.253 18.2526 22.9167 12.4997 22.9167C6.74673 22.9167 2.08301 18.253 2.08301 12.5C2.08301 6.7471 6.74673 2.08337 12.4997 2.08337ZM13.5414 13.5417H11.458C8.87915 13.5417 6.66514 15.1036 5.71021 17.3331C7.22114 19.4518 9.69907 20.8334 12.4997 20.8334C15.3002 20.8334 17.7782 19.4518 19.2892 17.333C18.3342 15.1036 16.1202 13.5417 13.5414 13.5417ZM12.4997 5.20837C10.7738 5.20837 9.37466 6.6075 9.37466 8.33337C9.37466 10.0593 10.7738 11.4584 12.4997 11.4584C14.2255 11.4584 15.6247 10.0593 15.6247 8.33337C15.6247 6.6075 14.2256 5.20837 12.4997 5.20837Z" fill="#465746"/>
</svg>
