<svg width="23" height="19" viewBox="0 0 23 19" fill="none" xmlns="http://www.w3.org/2000/svg">
<g clip-path="url(#clip0_717_5195)">
<path d="M7.56406 12.502C7.4819 12.502 7.39974 12.5143 7.32137 12.5403C6.87587 12.6883 6.40734 12.7832 5.91406 12.7832C5.42078 12.7832 4.95224 12.6883 4.5064 12.5403C4.42803 12.5143 4.34621 12.502 4.26406 12.502C2.13074 12.502 0.402713 14.2766 0.414057 16.4613C0.418869 17.3845 1.16103 18.127 2.06406 18.127H9.76406C10.6671 18.127 11.4092 17.3845 11.4141 16.4613C11.4254 14.2766 9.69737 12.502 7.56406 12.502ZM5.91406 11.377C7.73662 11.377 9.21406 9.86594 9.21406 8.00195C9.21406 6.13797 7.73662 4.62695 5.91406 4.62695C4.09149 4.62695 2.61406 6.13797 2.61406 8.00195C2.61406 9.86594 4.09149 11.377 5.91406 11.377ZM20.7641 0.126953H7.56406C6.65415 0.126953 5.91406 0.90918 5.91406 1.87035V3.50195C6.71912 3.50195 7.46437 3.74031 8.11406 4.12773V2.37695H20.2141V12.502H18.0141V10.252H13.6141V12.502H10.9933C11.6499 13.0887 12.1318 13.8636 12.3577 14.752H20.7641C21.674 14.752 22.4141 13.9697 22.4141 13.0086V1.87035C22.4141 0.90918 21.674 0.126953 20.7641 0.126953Z" fill="#465746"/>
</g>
<defs>
<clipPath id="clip0_717_5195">
<rect width="22" height="18" fill="white" transform="translate(0.414062 0.126953)"/>
</clipPath>
</defs>
</svg>
