<svg width="18" height="19" viewBox="0 0 18 19" fill="none" xmlns="http://www.w3.org/2000/svg">
<path d="M17.3945 13.4797C16.4618 12.4635 15.1305 11.7356 13.62 11.4159L13.5729 11.4076L12.4846 12.8989C12.4839 13.0975 12.3864 13.2878 12.2134 13.4282C12.0405 13.5686 11.8061 13.6478 11.5615 13.6483C11.0538 13.6483 10.6385 13.3111 10.1538 12.3189V12.2949C10.1538 12.0465 10.0323 11.8082 9.81589 11.6325C9.59951 11.4569 9.30602 11.3582 9 11.3582C8.69398 11.3582 8.4005 11.4569 8.18411 11.6325C7.96772 11.8082 7.84616 12.0465 7.84616 12.2949V12.3196V12.3181C7.32923 13.3111 6.91016 13.6476 6.40339 13.6476C6.1588 13.647 5.92443 13.5679 5.75148 13.4274C5.57853 13.287 5.48104 13.0968 5.48031 12.8982L4.42615 11.4039C2.90515 11.718 1.56162 12.4439 0.617539 13.4617L0.604616 13.476C0.231372 13.9732 0.023074 14.5404 0 15.1224V15.1277C0.00461539 15.2401 0 15.3712 0 15.5024V17.0012C0 17.3987 0.194505 17.7799 0.540726 18.061C0.886947 18.3421 1.35652 18.5 1.84615 18.5H16.1538C16.6435 18.5 17.1131 18.3421 17.4593 18.061C17.8055 17.7799 18 17.3987 18 17.0012V15.5024C18 15.372 17.9954 15.2401 18 15.1277C17.9777 14.5388 17.7657 13.9649 17.3852 13.4632L17.3954 13.4782L17.3945 13.4797ZM4.15292 4.4831C4.15292 6.67137 5.83292 9.88632 8.99908 9.88632C12.1098 9.88632 13.8452 6.67137 13.8452 4.4831V4.43439C13.8452 3.91772 13.7199 3.4061 13.4763 2.92876C13.2328 2.45142 12.8758 2.0177 12.4258 1.65236C11.9758 1.28701 11.4416 0.997209 10.8536 0.799487C10.2657 0.601766 9.63548 0.5 8.99908 0.5C8.36267 0.5 7.7325 0.601766 7.14454 0.799487C6.55657 0.997209 6.02234 1.28701 5.57233 1.65236C5.12232 2.0177 4.76536 2.45142 4.52182 2.92876C4.27827 3.4061 4.15292 3.91772 4.15292 4.43439V4.48535V4.4831Z" fill="white"/>
</svg>
