<svg width="41" height="41" viewBox="0 0 41 41" fill="none" xmlns="http://www.w3.org/2000/svg">
<path d="M34.1309 6.63086H6.63086C5.96782 6.63086 5.33193 6.89425 4.86309 7.36309C4.39425 7.83193 4.13086 8.46782 4.13086 9.13086V31.6309C4.13086 32.2939 4.39425 32.9298 4.86309 33.3986C5.33193 33.8675 5.96782 34.1309 6.63086 34.1309H8.72305C8.95962 34.1309 9.19136 34.0639 9.39133 33.9375C9.59131 33.8111 9.7513 33.6305 9.85273 33.4168C10.4606 32.1335 11.4203 31.0491 12.6201 30.2897C13.82 29.5304 15.2109 29.1273 16.6309 29.1273C18.0509 29.1273 19.4417 29.5304 20.6416 30.2897C21.8415 31.0491 22.8011 32.1335 23.409 33.4168C23.5104 33.6305 23.6704 33.8111 23.8704 33.9375C24.0704 34.0639 24.3021 34.1309 24.5387 34.1309H34.1309C34.7939 34.1309 35.4298 33.8675 35.8986 33.3986C36.3675 32.9298 36.6309 32.2939 36.6309 31.6309V9.13086C36.6309 8.46782 36.3675 7.83193 35.8986 7.36309C35.4298 6.89425 34.7939 6.63086 34.1309 6.63086ZM16.6309 26.6309C15.642 26.6309 14.6753 26.3376 13.853 25.7882C13.0308 25.2388 12.3899 24.4579 12.0115 23.5443C11.633 22.6306 11.534 21.6253 11.7269 20.6554C11.9199 19.6855 12.3961 18.7946 13.0953 18.0953C13.7946 17.3961 14.6855 16.9199 15.6554 16.7269C16.6253 16.534 17.6306 16.633 18.5443 17.0115C19.4579 17.3899 20.2388 18.0308 20.7882 18.853C21.3376 19.6753 21.6309 20.642 21.6309 21.6309C21.6309 22.9569 21.1041 24.2287 20.1664 25.1664C19.2287 26.1041 17.9569 26.6309 16.6309 26.6309ZM34.1309 31.6309H25.2918C24.7467 30.6914 24.0522 29.847 23.2355 29.1309H30.3809C30.7124 29.1309 31.0303 28.9992 31.2647 28.7647C31.4992 28.5303 31.6309 28.2124 31.6309 27.8809V12.8809C31.6309 12.5493 31.4992 12.2314 31.2647 11.997C31.0303 11.7626 30.7124 11.6309 30.3809 11.6309H10.3809C10.0493 11.6309 9.7314 11.7626 9.49698 11.997C9.26256 12.2314 9.13086 12.5493 9.13086 12.8809V27.8809C9.13072 28.1581 9.22274 28.4275 9.39245 28.6467C9.56217 28.8659 9.79993 29.0225 10.0684 29.0918C9.23271 29.8157 8.52352 30.6738 7.96992 31.6309H6.63086V9.13086H34.1309V31.6309Z" fill="#767EE0"/>
</svg>
