<svg width="20" height="16" viewBox="0 0 20 16" fill="none" xmlns="http://www.w3.org/2000/svg">
<g clip-path="url(#clip0_1298_6154)">
<path d="M11.0562 1.69084L10.3188 0.197086C10.1969 -0.0622891 9.81562 -0.0716641 9.68125 0.197086L8.94375 1.69084L7.30937 1.92521C7.01875 1.96896 6.89375 2.32834 7.10938 2.54396L8.29688 3.70021L8.01562 5.32834C7.97188 5.61896 8.27187 5.84396 8.54062 5.70959L10.0063 4.93459L11.4625 5.69709C11.7312 5.83146 12.0344 5.60646 11.9875 5.31584L11.7063 3.68771L12.8938 2.54396C13.1063 2.33146 12.9844 1.97209 12.6938 1.92521L11.0594 1.69084H11.0562ZM8 8.00021C7.44687 8.00021 7 8.44709 7 9.00021V15.0002C7 15.5533 7.44687 16.0002 8 16.0002H12C12.5531 16.0002 13 15.5533 13 15.0002V9.00021C13 8.44709 12.5531 8.00021 12 8.00021H8ZM1 10.0002C0.446875 10.0002 0 10.4471 0 11.0002V15.0002C0 15.5533 0.446875 16.0002 1 16.0002H5C5.55313 16.0002 6 15.5533 6 15.0002V11.0002C6 10.4471 5.55313 10.0002 5 10.0002H1ZM14 13.0002V15.0002C14 15.5533 14.4469 16.0002 15 16.0002H19C19.5531 16.0002 20 15.5533 20 15.0002V13.0002C20 12.4471 19.5531 12.0002 19 12.0002H15C14.4469 12.0002 14 12.4471 14 13.0002Z" fill="#343B34"/>
</g>
<defs>
<clipPath id="clip0_1298_6154">
<rect width="20" height="16" fill="white"/>
</clipPath>
</defs>
</svg>
