<svg width="14" height="14" viewBox="0 0 14 14" fill="none" xmlns="http://www.w3.org/2000/svg">
<path fill-rule="evenodd" clip-rule="evenodd" d="M7.92573 0.75C7.92573 0.551088 7.84672 0.360322 7.70606 0.21967C7.56541 0.0790176 7.37465 0 7.17573 0C6.97682 0 6.78606 0.0790176 6.6454 0.21967C6.50475 0.360322 6.42573 0.551088 6.42573 0.75V1.504C6.42573 1.70291 6.50475 1.89368 6.6454 2.03433C6.78606 2.17498 6.97682 2.254 7.17573 2.254C7.37465 2.254 7.56541 2.17498 7.70606 2.03433C7.84672 1.89368 7.92573 1.70291 7.92573 1.504V0.75ZM6.58773 2.911C6.76001 2.81175 6.96464 2.78496 7.15666 2.83653C7.34868 2.8881 7.51236 3.0138 7.61173 3.186L11.4697 9.867C11.5676 10.0392 11.5934 10.2431 11.5415 10.4342C11.4897 10.6253 11.3643 10.7882 11.1928 10.8872C11.0212 10.9862 10.8175 11.0134 10.626 10.9628C10.4346 10.9122 10.2709 10.7879 10.1707 10.617L10.1157 10.521L7.02373 11.239C7.16195 11.7471 7.11079 12.2881 6.87979 12.7613C6.6488 13.2344 6.2537 13.6075 5.76808 13.8111C5.28246 14.0146 4.73942 14.0348 4.24007 13.8677C3.74072 13.7006 3.31911 13.3578 3.05373 12.903L3.05173 12.9L2.67573 12.249L1.22173 12.586C1.11734 12.6102 1.00793 12.6003 0.909627 12.5576C0.811323 12.5149 0.72933 12.4418 0.675735 12.349L0.0667346 11.294C0.01328 11.2012 -0.00896403 11.0937 0.00327773 10.9873C0.0155195 10.8809 0.0616001 10.7812 0.134735 10.703L6.36973 4.033L6.31273 3.936C6.26343 3.85065 6.23144 3.75643 6.21858 3.65871C6.20572 3.56099 6.21224 3.4617 6.23778 3.3665C6.26332 3.27131 6.30738 3.18208 6.36742 3.10392C6.42747 3.02576 6.50233 2.96021 6.58773 2.911ZM4.20273 11.894L5.55973 11.579C5.61888 11.7368 5.6165 11.911 5.55307 12.0671C5.48964 12.2232 5.36981 12.3497 5.21738 12.4215C5.06495 12.4933 4.89109 12.5052 4.73034 12.4547C4.56959 12.4042 4.43372 12.2951 4.34973 12.149L4.20273 11.894ZM13.9827 6.806C13.9827 7.00491 13.9037 7.19568 13.7631 7.33633C13.6224 7.47698 13.4316 7.556 13.2327 7.556H12.4787C12.2798 7.556 12.0891 7.47698 11.9484 7.33633C11.8078 7.19568 11.7287 7.00491 11.7287 6.806C11.7287 6.60709 11.8078 6.41632 11.9484 6.27567C12.0891 6.13502 12.2798 6.056 12.4787 6.056H13.2317C13.4306 6.056 13.6214 6.13502 13.7621 6.27567C13.9027 6.41632 13.9827 6.60709 13.9827 6.806ZM1.87473 7.556C2.07365 7.556 2.26441 7.47698 2.40506 7.33633C2.54572 7.19568 2.62473 7.00491 2.62473 6.806C2.62473 6.60709 2.54572 6.41632 2.40506 6.27567C2.26441 6.13502 2.07365 6.056 1.87473 6.056H1.12073C0.921822 6.056 0.731057 6.13502 0.590405 6.27567C0.449752 6.41632 0.370735 6.60709 0.370735 6.806C0.370735 7.00491 0.449752 7.19568 0.590405 7.33633C0.731057 7.47698 0.921822 7.556 1.12073 7.556H1.87473ZM4.05673 3.688C3.91611 3.82845 3.72549 3.90734 3.52673 3.90734C3.32798 3.90734 3.13736 3.82845 2.99673 3.688L2.36273 3.054C2.28905 2.98534 2.22995 2.90254 2.18895 2.81054C2.14796 2.71854 2.12592 2.61923 2.12414 2.51852C2.12237 2.41782 2.14089 2.31779 2.17861 2.2244C2.21633 2.13101 2.27248 2.04618 2.3437 1.97496C2.41492 1.90374 2.49975 1.8476 2.59314 1.80988C2.68653 1.77216 2.78655 1.75363 2.88726 1.75541C2.98796 1.75719 3.08727 1.77923 3.17927 1.82022C3.27127 1.86121 3.35407 1.92031 3.42273 1.994L4.05773 2.627C4.12743 2.69665 4.18272 2.77935 4.22044 2.87038C4.25816 2.9614 4.27757 3.05897 4.27757 3.1575C4.27757 3.25603 4.25816 3.3536 4.22044 3.44462C4.18272 3.53565 4.12643 3.61835 4.05673 3.688ZM11.9887 3.054C12.1212 2.91183 12.1933 2.72378 12.1899 2.52948C12.1865 2.33518 12.1078 2.14979 11.9704 2.01238C11.8329 1.87497 11.6476 1.79625 11.4533 1.79282C11.259 1.7894 11.0709 1.86152 10.9287 1.994L10.2867 2.634C10.146 2.7747 10.067 2.96552 10.067 3.1645C10.067 3.26302 10.0864 3.36058 10.1241 3.4516C10.1618 3.54263 10.2171 3.62533 10.2867 3.695C10.3564 3.76467 10.4391 3.81993 10.5301 3.85763C10.6212 3.89533 10.7187 3.91474 10.8172 3.91474C11.0162 3.91474 11.207 3.8357 11.3477 3.695L11.9887 3.054Z" fill="#343B34"/>
</svg>
