<svg width="18" height="19" viewBox="0 0 18 19" fill="none" xmlns="http://www.w3.org/2000/svg">
<g clip-path="url(#clip0_746_4178)">
<path d="M4.5 10.625H9V12.875H4.5V10.625Z" fill="white"/>
<path d="M18 2.75H16.875V0.5H5.625V2.75H3.375V4.15625L2.7 5H1.125V6.96875L0 8.375V18.5H13.5L18 12.875V2.75ZM2.25 6.125H11.25V8.375H2.25V6.125ZM12.375 17.375H1.125V9.5H12.375V17.375ZM13.5 8.375H12.375V5H4.5V3.875H13.5V8.375ZM15.75 5.5625L14.625 6.96875V2.75H6.75V1.625H15.75V5.5625Z" fill="white"/>
</g>
<defs>
<clipPath id="clip0_746_4178">
<rect width="18" height="18" fill="white" transform="translate(0 0.5)"/>
</clipPath>
</defs>
</svg>
