<svg width="16" height="20" viewBox="0 0 16 20" fill="none" xmlns="http://www.w3.org/2000/svg">
<g clip-path="url(#clip0_62_5)">
<path d="M15.41 5.41L10.58 0.58C10.21 0.21 9.7 0 9.17 0H2C0.9 0 0.0100002 0.9 0.0100002 2L0 18C0 19.1 0.89 20 1.99 20H14C15.1 20 16 19.1 16 18V6.83C16 6.3 15.79 5.79 15.41 5.41ZM8 16C6.35 16 4.81 15.19 3.88 13.83C3.76792 13.6667 3.725 13.4657 3.7606 13.2708C3.79619 13.076 3.90742 12.9031 4.07 12.79C4.41 12.55 4.88 12.64 5.11 12.98C5.76 13.93 6.84 14.5 7.99 14.5C9.92 14.5 11.49 12.93 11.49 11C11.4913 10.2162 11.229 9.45468 10.7454 8.83785C10.2617 8.22103 9.58478 7.78468 8.82329 7.59893C8.06179 7.41317 7.25996 7.48878 6.54661 7.81361C5.83326 8.13844 5.24981 8.69364 4.89 9.39L6.5 11H3C2.72 11 2.5 10.78 2.5 10.5V7L3.8 8.3C4.2504 7.59458 4.87133 7.01406 5.60541 6.61206C6.3395 6.21006 7.16305 5.99956 8 6C10.76 6 13 8.24 13 11C13 13.76 10.76 16 8 16Z" fill="white"/>
</g>
<defs>
<clipPath id="clip0_62_5">
<rect width="16" height="20" fill="white"/>
</clipPath>
</defs>
</svg>
