<svg width="25" height="25" viewBox="0 0 25 25" fill="none" xmlns="http://www.w3.org/2000/svg">
<path d="M9.93881 16.3263C8.08506 16.3263 6.51636 15.6842 5.23268 14.3998C3.94901 13.1155 3.30683 11.5467 3.30615 9.69369C3.30547 7.84063 3.94765 6.27192 5.23268 4.98757C6.51772 3.70321 8.08642 3.06104 9.93881 3.06104C11.7912 3.06104 13.3602 3.70321 14.6459 4.98757C15.9317 6.27192 16.5735 7.84063 16.5715 9.69369C16.5715 10.442 16.4524 11.1478 16.2143 11.811C15.9762 12.4743 15.6531 13.061 15.2449 13.5712L20.9592 19.2855C21.1463 19.4726 21.2398 19.7107 21.2398 19.9998C21.2398 20.2889 21.1463 20.527 20.9592 20.7141C20.7721 20.9012 20.534 20.9947 20.2449 20.9947C19.9558 20.9947 19.7177 20.9012 19.5306 20.7141L13.8164 14.9998C13.3062 15.408 12.7194 15.7311 12.0562 15.9692C11.3929 16.2073 10.6871 16.3263 9.93881 16.3263ZM9.93881 14.2855C11.2143 14.2855 12.2987 13.8393 13.1919 12.9467C14.0851 12.0542 14.5313 10.9699 14.5306 9.69369C14.53 8.4175 14.0837 7.33348 13.1919 6.44165C12.3 5.54981 11.2157 5.10321 9.93881 5.10185C8.66193 5.10049 7.57792 5.54709 6.68677 6.44165C5.79561 7.33621 5.34901 8.42022 5.34697 9.69369C5.34493 10.9672 5.79153 12.0515 6.68677 12.9467C7.582 13.842 8.66602 14.2882 9.93881 14.2855Z" fill="#465746"/>
</svg>
