<svg width="18" height="19" viewBox="0 0 18 19" fill="none" xmlns="http://www.w3.org/2000/svg">
<path d="M9.00205 12.65C8.14318 12.65 7.31949 12.3181 6.71217 11.7274C6.10486 11.1366 5.76368 10.3354 5.76368 9.5C5.76368 8.66457 6.10486 7.86336 6.71217 7.27262C7.31949 6.68188 8.14318 6.35 9.00205 6.35C9.86091 6.35 10.6846 6.68188 11.2919 7.27262C11.8992 7.86336 12.2404 8.66457 12.2404 9.5C12.2404 10.3354 11.8992 11.1366 11.2919 11.7274C10.6846 12.3181 9.86091 12.65 9.00205 12.65ZM15.8766 10.373C15.9136 10.085 15.9414 9.797 15.9414 9.5C15.9414 9.203 15.9136 8.906 15.8766 8.6L17.8289 7.133C18.0047 6.998 18.051 6.755 17.9399 6.557L16.0894 3.443C15.9784 3.245 15.7286 3.164 15.525 3.245L13.2212 4.145C12.74 3.794 12.2404 3.488 11.6575 3.263L11.3152 0.878002C11.2964 0.771997 11.2396 0.675886 11.1549 0.606698C11.0703 0.53751 10.9631 0.499712 10.8525 0.500002H7.15155C6.92024 0.500002 6.72594 0.662002 6.68893 0.878002L6.34658 3.263C5.76368 3.488 5.26404 3.794 4.78291 4.145L2.47905 3.245C2.27549 3.164 2.02568 3.245 1.91465 3.443L0.0641489 6.557C-0.0561333 6.755 -0.000618345 6.998 0.175179 7.133L2.12745 8.6C2.09044 8.906 2.06268 9.203 2.06268 9.5C2.06268 9.797 2.09044 10.085 2.12745 10.373L0.175179 11.867C-0.000618345 12.002 -0.0561333 12.245 0.0641489 12.443L1.91465 15.557C2.02568 15.755 2.27549 15.827 2.47905 15.755L4.78291 14.846C5.26404 15.206 5.76368 15.512 6.34658 15.737L6.68893 18.122C6.72594 18.338 6.92024 18.5 7.15155 18.5H10.8525C11.0839 18.5 11.2782 18.338 11.3152 18.122L11.6575 15.737C12.2404 15.503 12.74 15.206 13.2212 14.846L15.525 15.755C15.7286 15.827 15.9784 15.755 16.0894 15.557L17.9399 12.443C18.051 12.245 18.0047 12.002 17.8289 11.867L15.8766 10.373Z" fill="white"/>
</svg>
