<svg width="27" height="27" viewBox="0 0 27 27" fill="none" xmlns="http://www.w3.org/2000/svg">
<path d="M3.12244 6.62663L9.08077 4.45996L15.0391 6.62663L12.3308 8.25163V9.87663C12.3308 9.87663 11.6082 9.33496 9.08077 9.33496C6.55335 9.33496 5.83077 9.87663 5.83077 9.87663V8.25163L3.12244 6.62663ZM3.12244 6.62663V10.96" stroke="#465746" stroke-width="1.5" stroke-linecap="round" stroke-linejoin="round"/>
<path d="M12.3307 9.33529V10.2984C12.3307 12.1595 10.8758 13.6686 9.08075 13.6686C7.28566 13.6686 5.83075 12.1595 5.83075 10.2984V9.33529M17.0086 12.0761C17.0086 12.0761 17.534 11.6937 19.3724 11.6937C21.2108 11.6937 21.7362 12.075 21.7362 12.075M17.0086 12.0761V10.9603L15.0391 9.87695L19.3724 8.25195L23.7057 9.87695L21.7362 10.9603V12.075M17.0086 12.0761V12.3881C17.0086 13.015 17.2576 13.6163 17.7009 14.0596C18.1442 14.5029 18.7455 14.752 19.3724 14.752C19.9993 14.752 20.6006 14.5029 21.0439 14.0596C21.4872 13.6163 21.7362 13.015 21.7362 12.3881V12.075M17.7474 21.7936H21.7612C22.5986 21.7936 23.2637 21.3863 23.8617 20.8165C25.0859 19.6508 23.0763 18.7191 22.3104 18.263C21.6293 17.861 20.8729 17.6029 20.0881 17.5047C19.3033 17.4065 18.5066 17.4703 17.7474 17.6921M5.1645 17.3801C4.14292 17.951 1.46383 19.1156 3.09533 20.5727C3.89267 21.2845 4.77991 21.7936 5.89683 21.7936H12.2647C13.3805 21.7936 14.2688 21.2845 15.0662 20.5727C16.6977 19.1156 14.0186 17.951 12.997 17.3801C10.6007 16.0422 7.56083 16.0422 5.1645 17.3801Z" stroke="#465746" stroke-width="1.5" stroke-linecap="round" stroke-linejoin="round"/>
</svg>
