<svg width="18" height="23" viewBox="0 0 18 23" fill="none" xmlns="http://www.w3.org/2000/svg">
<path d="M6.44575 0.869212C6.32703 0.886867 6.21364 0.930433 6.11364 0.99682C6.11364 0.99682 5.07887 1.64795 3.96639 2.35225C2.85391 3.05573 1.61628 3.83119 1.33325 3.98825L1.28172 4.01279C0.254307 4.64674 0.0408091 5.68233 0.00399911 6.26311C0.00154511 6.2901 0.00399911 6.31219 0.00399911 6.34082C-0.00499889 6.5584 0.00399911 6.69828 0.00399911 6.69828V17.3838C0.00399911 18.9364 1.81423 19.6832 3.53203 19.6832C4.10463 19.6832 4.67723 19.5908 5.16803 19.4272C5.49523 19.2636 5.73 18.9364 5.73 18.6092V10.0202C5.73 8.13878 6.139 7.25534 7.366 6.51914C7.6932 6.35554 11.1239 3.98743 11.1239 3.98743C11.2875 3.82383 11.456 3.49172 11.456 3.24632V3.16943C11.456 2.84223 11.2924 2.59192 11.047 2.42832C10.8016 2.26472 10.4744 2.26472 10.229 2.42832C10.1472 2.51012 5.1574 5.86965 4.094 6.44225C3.0306 7.09665 2.03837 7.25452 1.79297 6.92732C1.71689 6.85125 1.65063 6.61812 1.64 6.39071V6.33918C1.64082 6.11668 1.69808 5.69787 2.15125 5.41893C2.61097 5.1629 3.75208 4.43406 4.86128 3.73221C5.33 3.43528 5.38808 3.40338 5.75536 3.16943C5.80371 3.36926 5.92553 3.54356 6.09659 3.65763C6.26764 3.77169 6.47537 3.81716 6.67844 3.78499C6.8815 3.75281 7.065 3.64535 7.19241 3.48399C7.31982 3.32263 7.3818 3.1192 7.366 2.91421V1.68721C7.36692 1.57062 7.34289 1.45518 7.29555 1.34862C7.2482 1.24207 7.17862 1.14688 7.09148 1.06941C7.00433 0.991949 6.90163 0.934011 6.79026 0.899483C6.67889 0.864955 6.56143 0.854634 6.44575 0.869212ZM12.9898 3.73221C12.8597 3.75385 12.7368 3.80661 12.6315 3.886C12.6315 3.886 8.51365 6.65656 7.80036 7.13182L7.775 7.158C7.18277 7.60217 6.83185 8.1306 6.67561 8.61404C6.58856 8.88688 6.54549 9.17183 6.548 9.45821V9.71425C6.54682 9.73959 6.54682 9.76498 6.548 9.79032V19.6832C6.548 21.2374 8.33778 22.1372 9.97379 22.1372C10.71 22.1372 11.3742 21.9785 11.865 21.6513C12.8466 21.0787 17.591 17.383 17.591 17.383C17.8364 17.2194 18 16.9887 18 16.7433V6.10932C18 5.70032 17.8413 5.45492 17.5141 5.29132C17.2687 5.12772 16.8654 5.20461 16.62 5.36821C15.3112 6.34981 11.7881 9.1212 10.9701 9.612C9.82491 10.2664 8.74597 10.43 8.33697 10.021C8.17337 9.8574 8.184 9.70361 8.184 9.45821C8.18836 9.31643 8.20554 9.197 8.23553 9.09993C8.28134 8.9576 8.37459 8.78255 8.72061 8.51261C8.73697 8.49952 8.72879 8.50034 8.74597 8.48725C9.33738 8.09215 11.146 6.85943 12.3255 6.05779C12.3924 6.23707 12.5199 6.38725 12.686 6.48221C12.8521 6.57718 13.0463 6.61091 13.2346 6.57755C13.423 6.54419 13.5938 6.44584 13.7172 6.29962C13.8406 6.15339 13.9088 5.96854 13.91 5.77721V4.55021C13.9109 4.43362 13.8869 4.31818 13.8395 4.21163C13.7922 4.10507 13.7226 4.00988 13.6355 3.93241C13.5483 3.85495 13.4456 3.79701 13.3343 3.76248C13.2229 3.72796 13.1054 3.71763 12.9898 3.73221ZM16.364 9.71425V11.3502L12.274 14.5192V12.8832L16.364 9.71425Z" fill="white"/>
</svg>
