<svg width="41" height="41" viewBox="0 0 41 41" fill="none" xmlns="http://www.w3.org/2000/svg">
<path d="M26.6308 20.3809C25.0245 20.3809 23.4714 19.6637 22.2558 18.3621C21.0737 17.0926 20.3519 15.3996 20.2245 13.5965C20.0886 11.673 20.6753 9.9043 21.8761 8.61523C23.0769 7.32617 24.7558 6.63086 26.6308 6.63086C28.4925 6.63086 30.1761 7.33867 31.373 8.62461C32.5816 9.92305 33.1698 11.6887 33.0339 13.5957C32.9034 15.4012 32.1823 17.0934 31.0026 18.3613C29.7901 19.6637 28.2378 20.3809 26.6308 20.3809ZM36.93 34.1309H16.3323C16.0012 34.1326 15.674 34.0584 15.376 33.9139C15.0781 33.7694 14.8172 33.5584 14.6136 33.2973C14.3976 33.0142 14.2484 32.6859 14.1772 32.3369C14.1061 31.988 14.1148 31.6275 14.2026 31.2824C14.8605 28.641 16.4901 26.4504 18.9151 24.948C21.0675 23.6152 23.8073 22.8809 26.6308 22.8809C29.5097 22.8809 32.1776 23.584 34.3425 24.916C36.773 26.4105 38.405 28.6137 39.0597 31.2871C39.1465 31.6325 39.1542 31.9929 39.0823 32.3417C39.0103 32.6904 38.8605 33.0184 38.6441 33.3012C38.4406 33.5611 38.1804 33.771 37.8833 33.9148C37.5862 34.0587 37.2601 34.1326 36.93 34.1309ZM11.8651 20.6934C9.11593 20.6934 6.69874 18.1371 6.47452 14.9957C6.36358 13.3863 6.86515 11.898 7.88077 10.8066C8.88546 9.72617 10.3026 9.13086 11.8651 9.13086C13.4276 9.13086 14.8339 9.7293 15.8441 10.816C16.8675 11.916 17.3675 13.4012 17.2503 14.9973C17.0261 18.1379 14.6097 20.6934 11.8651 20.6934ZM16.9948 23.1504C15.6206 22.4785 13.837 22.1426 11.8659 22.1426C9.56436 22.1426 7.32921 22.7426 5.5714 23.8316C3.57843 25.0684 2.2378 26.8691 1.6964 29.0434C1.61717 29.3561 1.60967 29.6827 1.67447 29.9987C1.73928 30.3148 1.8747 30.612 2.07061 30.8684C2.25651 31.107 2.49466 31.2998 2.76676 31.432C3.03886 31.5642 3.33764 31.6322 3.64015 31.6309H12.312C12.4584 31.6308 12.6001 31.5794 12.7125 31.4856C12.8248 31.3918 12.9007 31.2616 12.9269 31.1176C12.9355 31.0684 12.9464 31.0191 12.9589 30.9707C13.6214 28.3098 15.1737 26.0613 17.4675 24.4223C17.5519 24.3615 17.6197 24.2806 17.6649 24.1869C17.7101 24.0932 17.7312 23.9898 17.7263 23.8859C17.7214 23.782 17.6907 23.681 17.6369 23.592C17.5831 23.503 17.508 23.4288 17.4183 23.3762C17.2956 23.3043 17.155 23.2285 16.9948 23.1504Z" fill="#00A15D"/>
</svg>
