<svg width="24" height="24" viewBox="0 0 24 24" fill="none" xmlns="http://www.w3.org/2000/svg">
<path d="M18.6 16L13.4 10.85L10.825 13.425C10.4417 13.8083 9.96667 14 9.40001 14C8.83334 14 8.35834 13.8083 7.97501 13.425L2.70001 8.1C2.51667 7.91667 2.42067 7.68767 2.41201 7.413C2.40334 7.13834 2.49934 6.90067 2.70001 6.7C2.88334 6.51667 3.11667 6.425 3.40001 6.425C3.68334 6.425 3.91667 6.51667 4.10001 6.7L9.40001 12L11.975 9.425C12.3583 9.04167 12.8333 8.85 13.4 8.85C13.9667 8.85 14.4417 9.04167 14.825 9.425L20 14.6V13C20 12.7167 20.096 12.4793 20.288 12.288C20.48 12.0967 20.7173 12.0007 21 12C21.2827 11.9993 21.5203 12.0953 21.713 12.288C21.9057 12.4807 22.0013 12.718 22 13V17C22 17.2833 21.904 17.521 21.712 17.713C21.52 17.905 21.2827 18.0007 21 18H17C16.7167 18 16.4793 17.904 16.288 17.712C16.0967 17.52 16.0007 17.2827 16 17C15.9993 16.7173 16.0953 16.48 16.288 16.288C16.4807 16.096 16.718 16 17 16H18.6Z" fill="#465746"/>
</svg>
