<svg width="24" height="24" viewBox="0 0 24 24" fill="none" xmlns="http://www.w3.org/2000/svg">
<path d="M2.69999 17.625C2.49999 17.425 2.40399 17.1877 2.41199 16.913C2.41999 16.6383 2.51599 16.409 2.69999 16.225L7.97499 10.875C8.35832 10.4917 8.83332 10.3 9.39999 10.3C9.96666 10.3 10.4417 10.4917 10.825 10.875L13.4 13.475L18.6 8.325H17C16.7167 8.325 16.4793 8.229 16.288 8.037C16.0967 7.845 16.0007 7.608 16 7.326C15.9993 7.044 16.0953 6.80667 16.288 6.614C16.4807 6.42133 16.718 6.32533 17 6.326H21C21.2833 6.326 21.521 6.422 21.713 6.614C21.905 6.806 22.0007 7.04333 22 7.326V11.326C22 11.6093 21.904 11.847 21.712 12.039C21.52 12.231 21.2827 12.3267 21 12.326C20.7173 12.3253 20.48 12.2297 20.288 12.039C20.096 11.8483 20 11.6107 20 11.326V9.726L14.825 14.9C14.4417 15.2833 13.9667 15.475 13.4 15.475C12.8333 15.475 12.3583 15.2833 11.975 14.9L9.39999 12.325L4.09999 17.625C3.91666 17.8083 3.68332 17.9 3.39999 17.9C3.11666 17.9 2.88332 17.8083 2.69999 17.625Z" fill="#465746"/>
</svg>
