<svg width="24" height="24" viewBox="0 0 24 24" fill="none" xmlns="http://www.w3.org/2000/svg">
<path d="M12 10L8 14L9.4 15.4L11 13.8V18H13V13.8L14.6 15.4L16 14L12 10ZM5 21C4.45 21 3.97933 20.8043 3.588 20.413C3.19667 20.0217 3.00067 19.5507 3 19V6.52501C3 6.29167 3.03767 6.06667 3.113 5.85001C3.18833 5.63334 3.30067 5.43334 3.45 5.25001L4.7 3.72501C4.88333 3.49167 5.11233 3.31234 5.387 3.18701C5.66167 3.06167 5.94933 2.99934 6.25 3.00001H17.75C18.05 3.00001 18.3377 3.06267 18.613 3.18801C18.8883 3.31334 19.1173 3.49234 19.3 3.72501L20.55 5.25001C20.7 5.43334 20.8127 5.63334 20.888 5.85001C20.9633 6.06667 21.0007 6.29167 21 6.52501V19C21 19.55 20.8043 20.021 20.413 20.413C20.0217 20.805 19.5507 21.0007 19 21H5ZM5.4 6.00001H18.6L17.75 5.00001H6.25L5.4 6.00001Z" fill="#00A15D"/>
</svg>
